<?xml version="1.0" standalone="no"?>
<!DOCTYPE svg PUBLIC "-//W3C//DTD SVG 20010904//EN"
 "http://www.w3.org/TR/2001/REC-SVG-20010904/DTD/svg10.dtd">
<svg version="1.0" xmlns="http://www.w3.org/2000/svg"
 width="256.000000pt" height="256.000000pt" viewBox="0 0 256.000000 256.000000"
 preserveAspectRatio="xMidYMid meet">
<metadata>
Created by potrace 1.14, written by Peter Selinger 2001-2017
</metadata>
<g transform="translate(0.000000,256.000000) scale(0.100000,-0.100000)"
fill="#000000" stroke="none">
<path d="M847 2423 c-4 -3 -51 -6 -104 -5 -111 2 -168 -12 -190 -45 -8 -13
-22 -23 -30 -23 -7 0 -31 -9 -52 -19 -21 -11 -47 -18 -58 -15 -13 4 -31 -7
-59 -34 -21 -21 -49 -44 -61 -51 -13 -6 -30 -26 -39 -44 -9 -18 -36 -62 -60
-98 -62 -94 -83 -183 -78 -324 3 -60 5 -128 5 -150 -3 -340 0 -929 5 -960 17
-123 48 -228 85 -286 40 -62 113 -139 168 -178 31 -22 31 -22 31 -2 0 12 -4
21 -8 21 -4 0 -35 27 -68 59 -75 74 -126 170 -160 297 -14 54 -30 104 -35 110
-5 6 0 17 12 28 16 13 19 23 13 44 -10 35 -8 102 4 114 14 14 23 -61 15 -128
-11 -103 -2 -184 21 -204 8 -6 17 -27 21 -47 7 -38 37 -107 58 -133 45 -56
186 -143 300 -185 84 -30 104 -32 297 -21 148 8 209 10 270 8 25 -1 88 0 140
3 52 2 172 6 265 9 125 2 208 10 314 29 173 31 246 63 328 144 40 40 58 52 63
43 9 -15 4 -34 -18 -68 -10 -15 -18 -19 -22 -12 -4 7 -21 -2 -45 -24 -46 -42
-126 -82 -220 -108 -38 -11 -72 -22 -75 -25 -3 -3 25 -4 61 -1 48 3 73 10 93
25 23 18 31 20 46 10 27 -16 87 14 96 49 6 22 11 25 36 22 25 -4 35 2 63 37
19 23 42 58 50 79 16 37 16 38 -5 31 -21 -7 -21 -6 -6 23 8 16 26 37 40 46 15
9 26 23 26 31 0 8 11 54 25 102 15 49 26 114 26 148 0 33 5 66 11 73 8 9 3 23
-16 50 -14 21 -26 50 -26 66 0 38 20 22 21 -17 1 -30 1 -30 8 -7 13 45 2 688
-13 757 -6 25 -4 31 13 36 18 4 21 13 21 67 0 69 -28 193 -41 184 -16 -9 -22
27 -9 51 16 29 5 58 -52 147 -51 78 -57 84 -147 141 -121 76 -196 109 -260
114 -51 5 -63 2 -99 -22 -22 -15 -49 -25 -59 -22 -15 4 -14 5 3 6 24 1 41 30
21 36 -6 2 -60 6 -119 9 -90 6 -107 4 -102 -7 4 -11 -3 -14 -28 -11 -18 2 -40
7 -48 10 -8 4 -96 10 -194 15 -149 6 -186 5 -215 -7 -26 -11 -55 -13 -116 -8
-44 3 -88 10 -97 15 -20 11 -32 11 -41 2z m-2 -32 c10 -18 -20 -25 -106 -27
-51 -1 -101 -9 -124 -18 -42 -18 -55 -15 -35 8 14 18 46 24 143 29 37 2 70 7
74 10 10 10 41 8 48 -2z m585 -11 c17 -11 -48 -21 -125 -19 -33 1 -81 -2 -107
-6 -61 -10 -66 10 -5 23 52 11 219 13 237 2z m557 -94 c29 -9 55 -21 58 -26 3
-5 -11 -2 -32 7 -27 12 -72 17 -158 19 -179 3 -172 3 -155 15 22 15 224 4 287
-15z m-1057 -511 c30 -31 32 -38 27 -77 -6 -41 -30 -131 -47 -173 -13 -32 -61
-138 -71 -157 -13 -25 7 -32 29 -11 10 10 47 44 82 75 36 31 76 66 90 78 14
12 41 34 60 49 19 14 37 28 40 31 15 17 109 68 135 72 33 7 70 -9 128 -55 70
-55 93 -129 73 -241 l-9 -49 89 93 c118 124 274 275 353 342 l64 55 39 -20
c46 -25 94 -71 114 -110 22 -41 14 -77 -68 -326 -64 -195 -118 -398 -118 -445
0 -17 6 -18 67 -11 37 4 77 9 91 11 63 12 81 -26 35 -73 -84 -85 -142 -104
-213 -70 -79 39 -183 160 -198 230 -15 73 16 272 58 375 14 33 4 27 -48 -26
-190 -194 -318 -356 -378 -477 -21 -42 -41 -78 -45 -81 -14 -8 -95 34 -141 75
-25 23 -55 60 -67 84 l-20 42 23 95 c13 52 43 144 65 204 23 60 40 110 38 112
-10 10 -103 -70 -223 -190 -133 -133 -237 -263 -314 -393 l-43 -72 -36 15
c-89 37 -191 142 -191 197 0 64 71 226 166 380 32 50 85 146 119 213 104 202
158 277 195 267 10 -3 32 -20 50 -38z m-756 -355 c3 -80 2 -159 -3 -175 -7
-23 -9 -10 -10 60 -1 50 -8 112 -16 139 -19 62 -19 76 1 51 15 -19 16 -18 10
21 -5 34 0 61 10 51 1 -1 5 -67 8 -147z m17 -364 c1 -33 0 -86 -1 -116 l-2
-55 -13 42 c-13 41 -19 209 -7 227 10 17 22 -35 23 -98z"/>
</g>
</svg>
